<?xml version="1.0" encoding="UTF-8"?>
<!DOCTYPE svg PUBLIC "-//W3C//DTD SVG 1.1//EN" "http://www.w3.org/Graphics/SVG/1.1/DTD/svg11.dtd">
<!-- Creator: CorelDRAW 2020 (64-Bit) -->
<svg xmlns="http://www.w3.org/2000/svg" xml:space="preserve" width="50px" height="50px" version="1.1" style="shape-rendering:geometricPrecision; text-rendering:geometricPrecision; image-rendering:optimizeQuality; fill-rule:evenodd; clip-rule:evenodd"
viewBox="0 0 43.96 43.96"
 xmlns:xlink="http://www.w3.org/1999/xlink"
 xmlns:xodm="http://www.corel.com/coreldraw/odm/2003">
 <defs>
  <style type="text/css">
   <![CDATA[
    .fil0 {fill:#FEFEFE}
    .fil1 {fill:#201E1E}
    .fil2 {fill:#201E1E;fill-rule:nonzero}
   ]]>
  </style>
 </defs>
 <g id="Capa_x0020_1">
  <metadata id="CorelCorpID_0Corel-Layer"/>
  <circle class="fil0" cx="21.98" cy="21.98" r="21.98"/>
  <g id="_1874454515504">
   <path class="fil1" d="M18.17 7.61c-2.98,1.8 -6.37,5.16 -8.74,7.73 5.99,-4.06 13.52,-6.33 18.81,-7.45l0 0c-0.35,-0.46 -0.69,-0.86 -1.01,-1.2l0 0c-3.12,0.89 -6.8,2.18 -10.39,3.95l0 0c3.31,-1.97 6.72,-3.51 9.64,-4.62l0 0c-0.81,-0.64 -1.6,-0.92 -2.45,-0.92l0 0c-1.59,0 -3.38,1.01 -5.86,2.51l0 0z"/>
   <path class="fil1" d="M38.75 20.05c-0.14,1.49 -1.2,2.94 -3.6,3.1l0 0c-4.1,0.29 -9.87,-1.5 -13.21,-1.92l0 0c-11.03,-1.38 -15.62,0.6 -18.69,3.51l0 0c0,0 4.82,-3.16 14.56,-1.46l0 0c3.53,0.62 6.52,1.48 9.13,2.24l0 0c5.98,0.99 11.62,-1.33 11.81,-5.47l0 0 0 0z"/>
   <path class="fil1" d="M32.16 18.64c0,0 0.86,-1.42 2.16,-2.03l0 0c1.18,-0.56 2.77,-0.39 3.78,0.99l0 0c0.48,0.66 0.73,1.56 0.65,2.45l0 0 0 0c-0.19,4.14 -5.83,6.46 -11.81,5.47l0 0c4.66,1.35 8.08,2.36 11.11,1l0 0c5.75,-2.57 4.34,-11.25 -0.49,-12.01l0 0c-0.33,-0.05 -0.65,-0.07 -0.95,-0.07l0 0c-3.9,0 -4.45,4.2 -4.45,4.2l0 0z"/>
   <path class="fil1" d="M6.72 25.96c7.79,-2.57 17.47,0 17.47,0l0 0c-4.7,-1.82 -8.21,-2.43 -10.79,-2.43l0 0c-5.18,0 -6.68,2.43 -6.68,2.43l0 0z"/>
   <path class="fil1" d="M12.05 9.95l-1.43 -2.16 -0.87 1.37c0,0 0.99,2.16 0.61,4.62l0 0c0,0 1.91,-2.6 4.68,-4.92l0 0c1.78,-1.48 2.52,-1.92 2.52,-1.92 -0.64,-0.45 -1.28,-0.7 -1.89,-0.7l0 0c-1.32,0 -2.54,1.13 -3.62,3.71l0 0z"/>
   <path class="fil1" d="M2.79 21.63c-0.35,0.45 -0.63,2.25 -0.63,2.25l0 0c8.06,-7.14 26.66,-2.03 26.66,-2.03l0 0c0.48,-8.75 9.07,-13.34 6.17,-13.47l0 0c-0.07,0 -0.16,0 -0.25,0l0 0c-3.7,0 -23.72,2.42 -31.95,13.25zm21.41 -8.72c-0.45,-0.07 -0.77,-0.47 -0.7,-0.9l0 0c0.06,-0.44 0.51,-0.74 0.98,-0.67l0 0c0.46,0.07 0.77,0.48 0.68,0.91l0 0c-0.08,0.39 -0.43,0.67 -0.83,0.67l0 0c-0.05,0 -0.09,-0.01 -0.13,-0.01zm-2.69 0.43c-0.41,-0.03 -0.72,-0.37 -0.69,-0.77l0 0c0.03,-0.4 0.41,-0.7 0.84,-0.66l0 0c0.43,0.03 0.73,0.39 0.68,0.79l0 0c-0.05,0.37 -0.38,0.65 -0.76,0.65l0 0c-0.03,0 -0.05,-0.01 -0.07,-0.01zm-2.65 0.61c-0.37,0 -0.67,-0.29 -0.66,-0.65l0 0c0,-0.36 0.32,-0.65 0.71,-0.64l0 0c0.38,0.01 0.67,0.31 0.65,0.66l0 0c-0.02,0.36 -0.32,0.63 -0.68,0.63l0 0c-0.01,0 -0.01,0 -0.02,0zm-3.22 0.25c-0.02,-0.32 0.25,-0.59 0.58,-0.61l0 0c0.34,-0.02 0.62,0.23 0.62,0.55l0 0c0.01,0.32 -0.25,0.58 -0.57,0.6l0 0c-0.01,0 -0.02,0 -0.03,0l0 0c-0.32,0 -0.58,-0.24 -0.6,-0.54zm-2.49 1.06c-0.03,-0.28 0.18,-0.53 0.47,-0.57l0 0c0.29,-0.03 0.55,0.17 0.57,0.45l0 0c0.03,0.27 -0.18,0.52 -0.46,0.55l0 0c-0.02,0 -0.04,0 -0.06,0l0 0c-0.26,0 -0.49,-0.18 -0.52,-0.43zm-2.41 1.21c-0.04,-0.23 0.12,-0.46 0.37,-0.5l0 0c0.24,-0.05 0.47,0.11 0.51,0.34l0 0c0.04,0.23 -0.12,0.45 -0.36,0.5l0 0c-0.03,0 -0.06,0.01 -0.09,0.01l0 0c-0.2,0 -0.39,-0.14 -0.43,-0.35zm-2.32 1.37c-0.05,-0.19 0.07,-0.38 0.27,-0.43l0 0c0.2,-0.06 0.4,0.06 0.45,0.25l0 0c0.04,0.19 -0.08,0.38 -0.27,0.43l0 0c-0.04,0.01 -0.07,0.01 -0.1,0.01l0 0c-0.16,0 -0.31,-0.1 -0.35,-0.26l0 0z"/>
   <path class="fil2" d="M16.43 29.76c-0.3,-0.1 -0.62,-0.14 -0.97,-0.14 -0.64,0 -1.17,0.15 -1.6,0.45 -0.42,0.3 -0.63,0.71 -0.62,1.23 0,0.24 0.06,0.45 0.17,0.63 0.1,0.18 0.24,0.34 0.4,0.48 0.17,0.14 0.36,0.28 0.56,0.39 0.21,0.12 0.42,0.24 0.63,0.37 0.27,0.15 0.53,0.31 0.78,0.47 0.24,0.17 0.47,0.36 0.66,0.57 0.19,0.2 0.34,0.44 0.46,0.71 0.11,0.26 0.17,0.57 0.17,0.92 0,0.96 -0.42,1.7 -1.25,2.23 -0.83,0.53 -1.85,0.79 -3.07,0.79 -0.78,0 -1.6,-0.12 -2.44,-0.36l-0.03 -0.06 0.72 -2.47 0.44 -0.07 0.18 2.1c0.36,0.13 0.74,0.2 1.14,0.2 0.67,0 1.23,-0.16 1.68,-0.48 0.45,-0.31 0.68,-0.73 0.68,-1.26 0,-0.25 -0.06,-0.46 -0.16,-0.65 -0.1,-0.19 -0.24,-0.35 -0.41,-0.5 -0.17,-0.14 -0.35,-0.27 -0.56,-0.39 -0.21,-0.11 -0.42,-0.23 -0.63,-0.35 -0.23,-0.12 -0.47,-0.26 -0.71,-0.42 -0.24,-0.15 -0.46,-0.33 -0.66,-0.54 -0.2,-0.21 -0.36,-0.45 -0.48,-0.72 -0.12,-0.27 -0.19,-0.6 -0.19,-0.98 0,-0.93 0.38,-1.65 1.13,-2.17 0.76,-0.52 1.77,-0.78 3.03,-0.78 0.78,0 1.54,0.1 2.29,0.31l0.03 0.06 -0.77 2.2 -0.38 0.07 -0.22 -1.84z"/>
   <path id="1" class="fil2" d="M24.81 30.87c0.15,-0.22 0.29,-0.41 0.41,-0.59 0.11,-0.17 0.17,-0.31 0.17,-0.4 0,-0.12 -0.08,-0.19 -0.25,-0.24l-0.6 -0.16 0.05 -0.36c0.55,0.01 1.09,0.02 1.62,0.02 0.52,0 1.03,-0.01 1.55,-0.02l-0.04 0.34 -0.8 0.22c-0.18,0.05 -0.32,0.13 -0.42,0.24 -0.11,0.11 -0.22,0.24 -0.35,0.4l-2.91 3.96 -0.43 2.21c-0.05,0.27 -0.1,0.52 -0.14,0.74 -0.03,0.22 -0.07,0.43 -0.1,0.61 -0.02,0.11 0.05,0.19 0.19,0.23l0.83 0.24 -0.06 0.34c-0.77,-0.01 -1.48,-0.02 -2.12,-0.02 -0.65,0 -1.34,0.01 -2.06,0.02l0.04 -0.34 0.91 -0.25c0.13,-0.04 0.2,-0.11 0.23,-0.22 0.04,-0.18 0.08,-0.38 0.13,-0.6 0.04,-0.23 0.09,-0.48 0.15,-0.75l0.4 -2.13 -1.51 -3.85c-0.12,-0.28 -0.22,-0.48 -0.3,-0.6 -0.08,-0.12 -0.21,-0.21 -0.37,-0.26l-0.69 -0.19 0.03 -0.34c0.56,0.01 1.25,0.02 2.08,0.02 0.67,0 1.39,-0.01 2.18,-0.02l-0.02 0.34 -0.68 0.18c-0.1,0.02 -0.18,0.06 -0.23,0.12 -0.06,0.05 -0.08,0.13 -0.08,0.22 0,0.12 0.07,0.37 0.22,0.75l1.07 2.78 1.9 -2.64z"/>
   <path id="2" class="fil2" d="M30.73 31.06l-1.01 5.39c-0.1,0.5 -0.19,1 -0.28,1.49l2.73 0 1.24 -1.95 0.43 -0.06 -0.62 2.68 -0.04 0.05c-1.03,-0.01 -2.07,-0.02 -3.12,-0.02l-1.72 0c-0.67,0 -1.38,0.01 -2.11,0.01l0.04 -0.34 0.92 -0.25c0.13,-0.04 0.21,-0.11 0.23,-0.22 0.04,-0.18 0.08,-0.38 0.12,-0.6 0.05,-0.23 0.1,-0.48 0.16,-0.75l1.02 -5.4c0.05,-0.23 0.09,-0.44 0.12,-0.63 0.03,-0.18 0.06,-0.35 0.08,-0.5 0.02,-0.12 -0.02,-0.2 -0.12,-0.23l-0.89 -0.27 0.06 -0.34c0.78,0.01 1.49,0.02 2.15,0.02 0.63,0 1.32,-0.01 2.04,-0.02l-0.04 0.34 -0.94 0.25c-0.11,0.03 -0.18,0.1 -0.21,0.22 -0.04,0.16 -0.09,0.39 -0.15,0.69 -0.06,0.31 -0.09,0.45 -0.09,0.44z"/>
  </g>
 </g>
</svg>
